<svg width="278" height="278" viewBox="0 0 278 278" fill="none" xmlns="http://www.w3.org/2000/svg">
<path d="M127.143 270.835L120.372 269.864C118.614 269.612 117.113 269.033 115.869 268.127C114.623 267.237 113.719 266.105 113.156 264.731C112.591 263.373 112.425 261.887 112.656 260.271C112.888 258.656 113.467 257.268 114.393 256.108C115.317 254.963 116.503 254.131 117.952 253.612C119.398 253.108 121 252.982 122.758 253.234L129.529 254.206L127.143 270.835ZM122.635 254.768C121.178 254.559 119.862 254.662 118.687 255.075C117.511 255.504 116.548 256.182 115.801 257.11C115.052 258.053 114.581 259.189 114.391 260.52C114.2 261.85 114.332 263.065 114.789 264.165C115.243 265.281 115.976 266.203 116.987 266.93C117.995 267.672 119.228 268.148 120.685 268.357L125.603 269.063L127.553 255.474L122.635 254.768Z" fill="black"/>
<path d="M94.0808 250.294L102.888 253.464L106.304 249.924L108.043 250.55L95.127 263.756L93.4785 263.162L91.9427 244.754L93.704 245.388L94.0808 250.294ZM94.2028 251.868L94.94 261.724L101.79 254.599L94.2028 251.868Z" fill="black"/>
<path d="M64.1331 248.409L79.1083 237.763L80.6147 238.658L78.4335 256.901L76.7827 255.921L78.7031 240.09L65.6807 249.328L64.1331 248.409Z" fill="black"/>
<path d="M56.1255 242.187L54.749 241.065L65.3641 228.044L66.7406 229.166L56.1255 242.187Z" fill="black"/>
<path d="M35.9447 222.266L34.8759 220.847L47.0665 211.662L41.4049 204.148L42.6316 203.224L49.3621 212.156L35.9447 222.266Z" fill="black"/>
<path d="M29.5184 188.705L33.7061 197.076L38.6218 196.871L39.4486 198.524L20.9877 199.172L20.2039 197.605L31.7927 183.22L32.6303 184.894L29.5184 188.705ZM28.5205 189.929L22.2539 197.572L32.1283 197.141L28.5205 189.929Z" fill="black"/>
<path d="M27.2654 168.536C27.7081 170.14 27.7534 171.688 27.4015 173.179C27.0453 174.655 26.3447 175.936 25.2997 177.021C24.2351 178.095 22.9238 178.847 21.3661 179.277C19.8083 179.707 18.3047 179.731 16.8554 179.351C15.3864 178.96 14.1183 178.214 13.0513 177.115C11.9843 176.015 11.2294 174.663 10.7868 173.059C10.4548 171.856 10.3488 170.69 10.4689 169.562C10.589 168.433 10.9367 167.407 11.5121 166.485L12.8995 167.272C11.9684 168.89 11.7689 170.663 12.3009 172.591C12.6542 173.871 13.2686 174.955 14.1441 175.842C15.0197 176.729 16.0494 177.333 17.2334 177.654C18.4131 177.959 19.6353 177.937 20.9 177.588C22.1647 177.239 23.2252 176.631 24.0814 175.764C24.9333 174.881 25.5076 173.835 25.8043 172.624C26.1009 171.414 26.0726 170.168 25.7193 168.888C25.183 166.945 24.0947 165.527 22.4543 164.636L23.2416 163.248C24.2086 163.745 25.0429 164.452 25.7445 165.371C26.4264 166.278 26.9334 167.333 27.2654 168.536Z" fill="black"/>
<path d="M21.5851 141.972L23.1163 141.851L24.0529 153.694L7.30521 155.019L6.39702 143.535L7.92824 143.414L8.69642 153.127L14.6538 152.656L13.9689 143.995L15.4762 143.876L16.1611 152.537L22.3817 152.045L21.5851 141.972Z" fill="black"/>
<path d="M24.5345 120.823L18.741 124.038C18.7407 124.473 18.7147 124.921 18.6631 125.382L18.1614 129.866L23.4563 130.459L23.2588 132.224L6.56302 130.355L7.26227 124.106C7.50069 121.976 8.19633 120.363 9.3492 119.268C10.5021 118.174 11.969 117.726 13.7498 117.925C15.0537 118.071 16.1214 118.529 16.9531 119.298C17.7706 120.05 18.3096 121.06 18.5701 122.329L24.7507 118.891L24.5345 120.823ZM17.1552 125.262C17.3402 123.608 17.1159 122.303 16.4824 121.346C15.8488 120.39 14.8721 119.838 13.5523 119.69C12.2008 119.539 11.1183 119.861 10.3049 120.655C9.47561 121.448 8.96844 122.671 8.7834 124.325L8.28699 128.761L16.6587 129.698L17.1552 125.262Z" fill="black"/>
<path d="M10.6804 104.827L12.7961 98.3224C13.3455 96.6335 14.1728 95.2537 15.2782 94.1831C16.3683 93.1076 17.6383 92.4102 19.0882 92.091C20.5228 91.7669 22.0161 91.8572 23.568 92.362C25.12 92.8668 26.3883 93.6747 27.3729 94.7858C28.3423 95.8919 28.959 97.2029 29.2231 98.719C29.4719 100.23 29.3216 101.83 28.7722 103.519L26.6565 110.023L10.6804 104.827ZM27.2819 103.135C27.7372 101.735 27.8617 100.421 27.6555 99.1933C27.434 97.9604 26.9304 96.8964 26.1447 96.0015C25.3437 95.1016 24.3042 94.4438 23.0261 94.0281C21.748 93.6124 20.5281 93.5352 19.3662 93.7967C18.1892 94.0532 17.156 94.6173 16.2668 95.4889C15.3623 96.3557 14.6824 97.489 14.2271 98.8888L12.6904 103.613L25.7452 107.859L27.2819 103.135Z" fill="black"/>
<path d="M36.5772 75.7679L31.9466 83.9022L34.8495 87.8746L33.9352 89.4806L23.1347 74.4949L24.0014 72.9723L42.401 74.6094L41.4748 76.2362L36.5772 75.7679ZM35.0052 75.6187L25.1681 74.6583L31.0157 82.6267L35.0052 75.6187Z" fill="black"/>
<path d="M52.2249 55.3534C51.8791 55.7091 51.4574 55.8904 50.9596 55.8974C50.4619 55.9044 50.0237 55.7239 49.6451 55.3558C49.278 54.9989 49.0967 54.5772 49.1012 54.0906C49.0942 53.5928 49.2635 53.1661 49.6093 52.8105C49.9551 52.4549 50.3768 52.2735 50.8746 52.2665C51.3608 52.2484 51.7875 52.4177 52.1546 52.7746C52.5217 53.1316 52.7145 53.5645 52.733 54.0734C52.74 54.5711 52.5706 54.9978 52.2249 55.3534Z" fill="black"/>
<path d="M66.965 29.4801L70.438 35.0924L77.8259 30.5207L78.6341 31.8269L71.2462 36.3986L74.997 42.4599L73.4868 43.3945L64.6465 29.1085L74.4426 23.0466L75.2509 24.3527L66.965 29.4801Z" fill="black"/>
<path d="M102.047 29.2002L96.5216 25.5433C96.1358 25.7435 95.7264 25.927 95.2935 26.094L91.0836 27.7172L93.0004 32.6885L91.3433 33.3274L85.2993 17.6523L91.1663 15.3901C93.1667 14.6188 94.9185 14.4921 96.4214 15.01C97.9244 15.528 98.9982 16.623 99.6429 18.295C100.115 19.5192 100.202 20.6776 99.9026 21.7703C99.6129 22.8423 98.9652 23.7865 97.9596 24.603L103.861 28.5008L102.047 29.2002ZM94.7047 24.7005C96.2573 24.1018 97.3118 23.3009 97.8681 22.2975C98.4244 21.2942 98.4636 20.173 97.9859 18.934C97.4966 17.665 96.7119 16.8529 95.6318 16.4977C94.5459 16.1276 93.2267 16.2419 91.6741 16.8405L87.509 18.4465L90.5396 26.3065L94.7047 24.7005Z" fill="black"/>
<path d="M119.864 25.0386C118.221 25.3049 116.67 25.1836 115.209 24.6748C113.762 24.1476 112.556 23.3058 111.591 22.1494C110.641 20.9905 110.037 19.6135 109.778 18.0183C109.519 16.4231 109.657 14.9257 110.192 13.5261C110.743 12.1239 111.623 10.9519 112.832 10.0103C114.054 9.05034 115.486 8.43719 117.129 8.17087C118.771 7.90455 120.307 8.02837 121.735 8.54233C123.18 9.05374 124.386 9.89552 125.354 11.0677C126.32 12.2241 126.932 13.5998 127.191 15.195C127.449 16.7902 127.304 18.2968 126.756 19.7148C126.206 21.117 125.326 22.2889 124.117 23.2305C122.924 24.1696 121.506 24.7723 119.864 25.0386ZM119.61 23.475C120.921 23.2625 122.058 22.7782 123.022 22.0223C123.982 21.2505 124.678 20.2948 125.11 19.1551C125.538 17.9996 125.647 16.7743 125.437 15.4793C125.227 14.1842 124.738 13.0641 123.969 12.119C123.197 11.1581 122.235 10.4713 121.082 10.0585C119.926 9.62992 118.693 9.5219 117.382 9.73445C116.071 9.947 114.928 10.4404 113.951 11.2147C112.987 11.9707 112.284 12.9277 111.839 14.0857C111.408 15.2254 111.297 16.4428 111.507 17.7379C111.717 19.033 112.208 20.1609 112.98 21.1218C113.765 22.0643 114.735 22.7499 115.891 23.1785C117.059 23.5887 118.299 23.6876 119.61 23.475Z" fill="black"/>
<path d="M152.779 7.11268L151.855 23.8873L150.394 23.8068L140.359 9.60183L139.61 23.2132L137.837 23.1156L138.76 6.34101L140.222 6.42147L150.28 20.6278L151.029 7.01639L152.779 7.11268Z" fill="black"/>
<path d="M168.995 11.6202L163.262 10.2104L163.628 8.71884L176.82 11.9625L176.453 13.454L170.72 12.0443L167.075 26.8667L165.35 26.4426L168.995 11.6202Z" fill="black"/>
<path d="M181.534 23.738L187.362 26.0991L186.803 27.4782L180.975 25.1171L181.534 23.738Z" fill="black"/>
<path d="M204.301 41.6969L203.509 43.0132L193.329 36.8905L201.987 22.4935L211.859 28.4306L211.068 29.7469L202.717 24.7251L199.637 29.8463L207.083 34.3239L206.304 35.6196L198.858 31.1421L195.642 36.4895L204.301 41.6969Z" fill="black"/>
<path d="M232.979 45.7346L221.648 58.138L220.567 57.1506L221.788 39.8018L212.593 49.8662L211.282 48.6683L222.613 36.265L223.694 37.2524L222.491 54.6174L231.685 44.5529L232.979 45.7346Z" fill="black"/>
<path d="M242.278 56.1579L246.247 61.7286C247.278 63.1751 247.894 64.661 248.097 66.1864C248.313 67.7025 248.118 69.1382 247.511 70.4934C246.918 71.8393 245.957 72.9857 244.628 73.9327C243.299 74.8796 241.895 75.4183 240.416 75.5485C238.95 75.6695 237.53 75.3851 236.154 74.6952C234.792 73.9961 233.595 72.9233 232.565 71.4768L228.596 65.9061L242.278 56.1579ZM233.76 70.5074C234.614 71.7062 235.596 72.5881 236.706 73.153C237.828 73.7087 238.983 73.937 240.17 73.838C241.37 73.7297 242.517 73.2856 243.612 72.5058C244.706 71.7259 245.494 70.7913 245.975 69.7019C246.469 68.6033 246.631 67.4373 246.459 66.2039C246.301 64.9613 245.795 63.7405 244.94 62.5417L242.058 58.4956L230.877 66.4613L233.76 70.5074Z" fill="black"/>
<path d="M262.709 92.0585L264.769 98.5807C265.304 100.274 265.433 101.878 265.157 103.392C264.895 104.9 264.267 106.206 263.273 107.309C262.294 108.407 261.027 109.202 259.471 109.693C257.915 110.185 256.413 110.265 254.966 109.934C253.534 109.597 252.27 108.889 251.174 107.809C250.093 106.725 249.285 105.335 248.75 103.642L246.689 97.1197L262.709 92.0585ZM250.185 103.088C250.629 104.491 251.292 105.633 252.173 106.512C253.07 107.386 254.099 107.959 255.258 108.23C256.433 108.497 257.661 108.427 258.943 108.023C260.225 107.618 261.262 106.971 262.055 106.083C262.864 105.19 263.376 104.13 263.593 102.904C263.825 101.673 263.719 100.356 263.276 98.9519L261.779 94.2147L248.689 98.3504L250.185 103.088Z" fill="black"/>
<path d="M255.762 132.401L254.235 132.565L252.964 120.753L269.667 118.956L270.9 130.409L269.373 130.574L268.33 120.886L262.388 121.525L263.318 130.163L261.815 130.325L260.885 121.687L254.681 122.355L255.762 132.401Z" fill="black"/>
<path d="M269.985 157.451L253.824 148.71L253.962 146.963L271.296 140.871L271.145 142.785L256.091 148.047L270.127 155.657L269.985 157.451Z" fill="black"/>
<path d="M250.091 175.403L248.608 175.001L251.72 163.535L267.934 167.936L264.916 179.054L263.434 178.652L265.986 169.248L260.219 167.682L257.943 176.067L256.484 175.671L258.76 167.286L252.737 165.652L250.091 175.403Z" fill="black"/>
<path d="M260.33 191.214L259.569 192.819L245.777 186.28L241.747 194.781L240.359 194.123L245.15 184.017L260.33 191.214Z" fill="black"/>
<path d="M231.706 207.145C232.696 205.807 233.892 204.811 235.293 204.156C236.697 203.523 238.148 203.284 239.647 203.438C241.136 203.604 242.53 204.169 243.828 205.13C245.127 206.092 246.074 207.26 246.668 208.636C247.253 210.024 247.441 211.477 247.233 212.996C247.028 214.536 246.43 215.975 245.44 217.312C244.45 218.65 243.264 219.633 241.882 220.263C240.491 220.905 239.04 221.144 237.528 220.981C236.03 220.827 234.631 220.269 233.332 219.308C232.034 218.346 231.085 217.166 230.488 215.769C229.903 214.38 229.715 212.927 229.923 211.409C230.122 209.903 230.716 208.482 231.706 207.145ZM232.979 208.087C232.189 209.155 231.713 210.295 231.551 211.509C231.402 212.732 231.571 213.903 232.058 215.02C232.558 216.146 233.335 217.1 234.389 217.88C235.444 218.661 236.576 219.121 237.787 219.261C239.01 219.41 240.178 219.23 241.292 218.721C242.419 218.221 243.377 217.437 244.167 216.37C244.957 215.303 245.432 214.151 245.59 212.915C245.753 211.701 245.588 210.524 245.098 209.385C244.611 208.268 243.84 207.319 242.786 206.538C241.732 205.758 240.593 205.293 239.369 205.143C238.149 205.017 236.976 205.203 235.849 205.703C234.726 206.225 233.77 207.02 232.979 208.087Z" fill="black"/>
<path d="M226.58 237.778C224.977 239.201 223.381 239.934 221.792 239.976C220.203 240.018 218.813 239.369 217.623 238.029C216.433 236.689 215.953 235.233 216.182 233.66C216.422 232.099 217.343 230.606 218.946 229.182L222.32 226.186L218.798 222.22L220.126 221.041L231.282 233.602L226.58 237.778ZM220.018 230.317C218.774 231.422 218.062 232.536 217.882 233.658C217.713 234.793 218.069 235.857 218.951 236.85C219.854 237.867 220.874 238.352 222.01 238.306C223.157 238.272 224.352 237.702 225.596 236.597L228.934 233.633L223.356 227.353L220.018 230.317Z" fill="black"/>
<path d="M193.243 242.597L192.459 241.276L202.673 235.21L211.252 249.655L201.346 255.537L200.562 254.216L208.94 249.241L205.889 244.103L198.419 248.539L197.647 247.239L205.117 242.803L201.931 237.437L193.243 242.597Z" fill="black"/>
<path d="M172.962 249.282L178.404 253.062C178.794 252.871 179.208 252.696 179.644 252.539L183.889 251.011L182.085 245.998L183.756 245.396L189.446 261.203L183.53 263.333C181.513 264.059 179.758 264.146 178.267 263.595C176.776 263.043 175.728 261.924 175.121 260.238C174.676 259.004 174.616 257.844 174.939 256.758C175.253 255.693 175.922 254.763 176.945 253.97L171.133 249.94L172.962 249.282ZM180.201 253.945C178.636 254.509 177.564 255.286 176.985 256.277C176.406 257.267 176.342 258.387 176.792 259.637C177.252 260.916 178.018 261.746 179.09 262.125C180.168 262.52 181.489 262.435 183.055 261.872L187.255 260.36L184.402 252.433L180.201 253.945Z" fill="black"/>
<path d="M150.201 258.526C150.695 258.481 151.134 258.617 151.516 258.935C151.899 259.254 152.115 259.676 152.163 260.202C152.21 260.711 152.073 261.15 151.754 261.517C151.435 261.899 151.029 262.113 150.535 262.159C150.042 262.204 149.603 262.068 149.22 261.75C148.839 261.447 148.625 261.041 148.578 260.531C148.531 260.021 148.666 259.567 148.983 259.169C149.301 258.786 149.707 258.572 150.201 258.526Z" fill="black"/>
</svg>
